# xmcd
#
# Track frame offsets:
#	150
#	13992
#	28714
#	43928
#	57469
#	67736
#	81482
#	96065
#	114355
#	128955
#	144255
#	157937
#	171734
#	185445
#	199628
#	214820
#	233619
#
# Disc length: 3320 seconds
#
# Revision: 1
# Processed by: cddbd v1.5.2PL0 Copyright (c) Steve Scherf et al.
# Submitted via: audiograbber 1.83.01
#
DISCID=ee0cf611
DTITLE=Various Artist - Promo Only Country Radio March 2015
DYEAR=2015
DGENRE=Country
TTITLE0=Denny Strickland - Swerve On
TTITLE1=Tim Mcgraw w.Catherine Dunn - Diamond Rings And Old Bar Stools
TTITLE2=Brad Paisley - Crushin' It
TTITLE3=Keith Urban ft.Eric Church - Raise 'Em Up
TTITLE4=Kip Moore - I'm To Blame
TTITLE5=Parmalee - Already Callin' You Mine
TTITLE6=Bryson Jennings - Young Nights
TTITLE7=LeAnn Womack - Send It On Down
TTITLE8=Craig Wayne Boyd - My Baby's Got A Smile On Her Face
TTITLE9=Zac Brown Band - Homegrown
TTITLE10=Waterloo Revival - Hit The Road
TTITLE11=Austin Webb - All Country On You
TTITLE12=Jason Cassidy - Cowboy Girl
TTITLE13=Kenny Chesney - Wild Child
TTITLE14=Blackberry Smoke - Living In The Song
TTITLE15=Steve Azar ft.Sophie Young - The Sky Is Falling (Patti Jo's Prayer)
TTITLE16=Old Dominion - Break Up With Him
EXTD=
EXTT0=
EXTT1=
EXTT2=
EXTT3=
EXTT4=
EXTT5=
EXTT6=
EXTT7=
EXTT8=
EXTT9=
EXTT10=
EXTT11=
EXTT12=
EXTT13=
EXTT14=
EXTT15=
EXTT16=
PLAYORDER=
